<?xml version="1.0" encoding="utf-8"?>
<!-- Generator: Adobe Illustrator 24.0.3, SVG Export Plug-In . SVG Version: 6.00 Build 0)  -->
<svg version="1.1" id="Ebene_1" xmlns="http://www.w3.org/2000/svg" xmlns:xlink="http://www.w3.org/1999/xlink" x="0px" y="0px"
	 viewBox="0 0 141.7 132.3" style="enable-background:new 0 0 141.7 132.3;" xml:space="preserve">
<style type="text/css">
	.st0{fill:#FAC39D;}
	.st1{fill:#DF7976;}
</style>
<g>
	<g>
		<path class="st0" d="M15.7,0C7,0,0,7,0,15.7v70.8c0,8.7,7,15.7,15.7,15.7H126c8.7,0,15.7-7,15.7-15.7V15.7C141.7,7,134.7,0,126,0
			H15.7z"/>
	</g>
	<polygon class="st0" points="57.7,90.5 57.7,132.3 99.5,90.5 	"/>
	<g>
		<path class="st1" d="M70.1,91.2c-1.6,0-3.1-0.4-4.5-1.3c-1.4-0.8-2.5-1.9-3.3-3.3c-0.8-1.4-1.3-2.9-1.3-4.5c0-1.6,0.4-3.3,1.3-4.5
			c0.8-1.4,1.9-2.4,3.3-3.3c1.4-0.8,2.9-1.3,4.5-1.3c1.6,0,3.3,0.4,4.7,1.3c1.4,0.8,2.5,1.9,3.3,3.3c0.8,1.4,1.3,2.9,1.3,4.5
			c0,1.6-0.4,3.1-1.3,4.5c-0.8,1.4-1.9,2.5-3.3,3.3C73.4,90.7,71.9,91.2,70.1,91.2 M63.7,66.4V45.7c0.6,0.2,1.4,0.4,2.4,0.4
			c1,0.2,2,0.2,3.1,0.2c2.7,0,5.1-0.4,7-1.3c1.9-0.8,3.4-2,4.5-3.5c1-1.5,1.5-3.4,1.5-5.7c0-2.1-0.5-3.9-1.4-5.4
			c-1-1.5-2.3-2.7-4.1-3.5c-1.8-0.8-3.9-1.3-6.4-1.3c-3.4,0-6.2,0.9-8.3,2.5c-2.1,1.6-3.5,4.1-3.9,7l-11.6-2.4
			c0.6-4.1,2.1-7.6,4.4-10.5c2.3-2.9,5.2-5.1,8.6-6.7c3.4-1.5,7-2.4,11.1-2.4c4.8,0,9.1,1,12.9,3.1c3.8,2,6.7,4.8,8.7,8.2
			c2.1,3.4,3.1,7.2,3.1,11.3c0,3.7-0.9,7-2.5,10.3c-1.6,3.2-3.9,5.7-6.8,7.8c-2.9,2-6.1,3.4-9.5,4.1v8.5H63.7V66.4z"/>
	</g>
</g>
</svg>
